<?xml version="1.0" encoding="UTF-8"?>
<svg version="1.1" xmlns="http://www.w3.org/2000/svg" width="500" height="500">
<path d="M0 0 C9.39619842 9.93560981 10.7727547 20.12353959 10.72290039 33.25952148 C10.72304642 34.27491501 10.72319244 35.29030853 10.7233429 36.33647156 C10.7226492 39.67485734 10.71488227 43.01318653 10.70703125 46.3515625 C10.70516514 48.67326324 10.70374215 50.99496437 10.70274353 53.31666565 C10.69893354 59.41414485 10.68911624 65.51160007 10.67803955 71.60906982 C10.66779276 77.83638179 10.66323891 84.06369765 10.65820312 90.29101562 C10.64749259 102.50001051 10.63043444 114.70898763 10.609375 126.91796875 C0.82729287 127.07426051 -8.9548736 127.22234878 -18.73722267 127.36093235 C-23.28321601 127.42557122 -27.82914034 127.49267895 -32.375 127.56616211 C-50.01241421 127.849252 -67.65188158 128.10374182 -85.2890625 127.6953125 C-86.46836334 127.6795668 -87.64766418 127.66382111 -88.86270142 127.64759827 C-100.2426486 127.29089476 -108.95876451 124.36903192 -117.22265625 116.43359375 C-124.80947721 107.63014744 -126.0794184 98.05041047 -125.55664062 86.86962891 C-124.77744483 77.70949487 -119.07008574 70.82147957 -112.390625 64.91796875 C-100.96169168 57.1593765 -88.02907324 57.64654868 -74.765625 57.79296875 C-73.17318273 57.80302082 -71.58073429 57.81214272 -69.98828125 57.8203125 C-66.12224135 57.84214467 -62.25650264 57.87655091 -58.390625 57.91796875 C-58.40633545 56.8192041 -58.4220459 55.72043945 -58.43823242 54.58837891 C-58.49297699 50.46963986 -58.52713528 46.35093225 -58.55541992 42.23193359 C-58.57040593 40.45713879 -58.59080182 38.68238038 -58.61694336 36.90771484 C-58.82664614 22.29430919 -58.37587584 11.22643005 -47.76171875 0.23046875 C-34.23895829 -12.31965697 -13.81367518 -12.03053737 0 0 Z " fill="#3DBCEB" transform="translate(177.390625,183.08203125)"/>
<path d="M0 0 C22.44 0 44.88 0 68 0 C68 22.44 68 44.88 68 68 C45.56 68 23.12 68 0 68 C0 45.56 0 23.12 0 0 Z " fill="#1D2E5D" transform="translate(120,242)"/>
<path d="M0 0 C4.29 0 8.58 0 13 0 C14.17324446 3.9148055 15.3388305 7.83161336 16.5 11.75 C16.83386719 12.86117187 17.16773438 13.97234375 17.51171875 15.1171875 C17.82753906 16.18710938 18.14335937 17.25703125 18.46875 18.359375 C18.76201172 19.34389648 19.05527344 20.32841797 19.35742188 21.34277344 C20 24 20 24 20 28 C20.66 28 21.32 28 22 28 C22.3403125 26.081875 22.3403125 26.081875 22.6875 24.125 C24.3030308 15.96480063 26.71864728 7.99344199 29 0 C33.29 0 37.58 0 42 0 C42 12.87 42 25.74 42 39 C39.36 39 36.72 39 34 39 C33.67 31.74 33.34 24.48 33 17 C30.69 24.26 28.38 31.52 26 39 C22.7 39 19.4 39 16 39 C13.69 31.74 11.38 24.48 9 17 C8.67 24.26 8.34 31.52 8 39 C5.36 39 2.72 39 0 39 C0 26.13 0 13.26 0 0 Z " fill="#212B58" transform="translate(206,219)"/>
<path d="M0 0 C4.29 0 8.58 0 13 0 C13 4.29 13 8.58 13 13 C17.62 13 22.24 13 27 13 C27 17.62 27 22.24 27 27 C22.38 27 17.76 27 13 27 C13 31.29 13 35.58 13 40 C8.71 40 4.42 40 0 40 C0 35.71 0 31.42 0 27 C-4.62 27 -9.24 27 -14 27 C-14 22.38 -14 17.76 -14 13 C-9.38 13 -4.76 13 0 13 C0 8.71 0 4.42 0 0 Z " fill="#3FBBEA" transform="translate(147,256)"/>
<path d="M0 0 C3.465 -0.0825 6.93 -0.165 10.5 -0.25 C12.11358398 -0.30462402 12.11358398 -0.30462402 13.75976562 -0.36035156 C19.97973638 -0.43150252 24.89340602 0.24267411 30 4 C35.30233271 10.6619052 35.74533119 16.72787355 35 25 C33.29673566 30.95655871 29.98834611 34.49754422 25 38 C21.99984088 39.00005304 20.02576244 39.11575585 16.89453125 39.09765625 C16.00870361 39.09515869 15.12287598 39.09266113 14.21020508 39.09008789 C13.0889624 39.08098389 11.96771973 39.07187988 10.8125 39.0625 C7.244375 39.041875 3.67625 39.02125 0 39 C0 26.13 0 13.26 0 0 Z M9 7 C9 15.25 9 23.5 9 32 C18.12104785 32.81710207 18.12104785 32.81710207 22 30.3125 C25.62969844 26.11566118 26.40726516 22.35468679 26.25390625 16.92578125 C25.8725763 14.03354027 24.80743276 12.25929095 23 10 C18.5 6 18.5 6 9 7 Z " fill="#202A58" transform="translate(291,219)"/>
<path d="M0 0 C4.98652675 2.31517313 7.04486143 4.89491595 9 10 C9 10.99 9 11.98 9 13 C5.95071529 13.28766837 3.03635826 13.46252769 0 13 C-1.6875 10.5 -1.6875 10.5 -3 8 C-6.12635209 7.58253392 -6.12635209 7.58253392 -9 8 C-9.33 9.65 -9.66 11.3 -10 13 C-9.030625 13.4125 -8.06125 13.825 -7.0625 14.25 C-6.42957031 14.52457031 -5.79664063 14.79914063 -5.14453125 15.08203125 C-3.64934684 15.72204643 -2.1459369 16.34303691 -0.63671875 16.94921875 C7.2742689 20.22496323 7.2742689 20.22496323 9 24 C10.02844149 27.96684575 10.23937453 30.28187642 8.9375 34.1875 C6.47318345 37.76473371 5.00674875 39.20387125 1 41 C-4.78481826 41.72961672 -10.80174978 42.07635086 -16.125 39.375 C-19.27443667 36.77329144 -20.61719888 34.8230384 -22 31 C-22 30.01 -22 29.02 -22 28 C-19.03 28 -16.06 28 -13 28 C-12.34 29.32 -11.68 30.64 -11 32 C-8.01787087 33.49106457 -5.28390342 33.11941467 -2 33 C-0.70366379 31.93354885 -0.70366379 31.93354885 -0.9375 29.4375 C-0.958125 28.633125 -0.97875 27.82875 -1 27 C-2.03640625 26.62488281 -3.0728125 26.24976563 -4.140625 25.86328125 C-5.510717 25.3471507 -6.88049231 24.83017897 -8.25 24.3125 C-8.93191406 24.06822266 -9.61382812 23.82394531 -10.31640625 23.57226562 C-14.77449172 21.86261149 -17.44924503 20.23412475 -20 16 C-20.76936789 12.90130448 -20.66239632 10.11949038 -20 7 C-14.57300675 -0.08524119 -8.5034498 -0.98590722 0 0 Z " fill="#212B56" transform="translate(424,218)"/>
<path d="M0 0 C9.57 0 19.14 0 29 0 C29 1.98 29 3.96 29 6 C28 7 28 7 26.14233398 7.11352539 C25.35157471 7.10828857 24.56081543 7.10305176 23.74609375 7.09765625 C22.89208984 7.09443359 22.03808594 7.09121094 21.15820312 7.08789062 C20.26037109 7.07951172 19.36253906 7.07113281 18.4375 7.0625 C17.53580078 7.05798828 16.63410156 7.05347656 15.70507812 7.04882812 C13.47002411 7.03700244 11.23500398 7.01906638 9 7 C9 9.97 9 12.94 9 16 C14.94 16 20.88 16 27 16 C27 18.31 27 20.62 27 23 C21.06 23 15.12 23 9 23 C9 25.97 9 28.94 9 32 C15.6 32 22.2 32 29 32 C29 34.31 29 36.62 29 39 C19.43 39 9.86 39 0 39 C0 26.13 0 13.26 0 0 Z " fill="#202B57" transform="translate(332,219)"/>
<path d="M0 0 C9.57 0 19.14 0 29 0 C29 1.98 29 3.96 29 6 C28 7 28 7 26.14233398 7.11352539 C25.35157471 7.10828857 24.56081543 7.10305176 23.74609375 7.09765625 C22.89208984 7.09443359 22.03808594 7.09121094 21.15820312 7.08789062 C20.26037109 7.07951172 19.36253906 7.07113281 18.4375 7.0625 C17.53580078 7.05798828 16.63410156 7.05347656 15.70507812 7.04882812 C13.47002411 7.03700244 11.23500398 7.01906638 9 7 C9 9.97 9 12.94 9 16 C14.94 16 20.88 16 27 16 C27 18.31 27 20.62 27 23 C21.06 23 15.12 23 9 23 C9 25.97 9 28.94 9 32 C15.6 32 22.2 32 29 32 C29 34.31 29 36.62 29 39 C19.43 39 9.86 39 0 39 C0 26.13 0 13.26 0 0 Z " fill="#202B57" transform="translate(256,219)"/>
<path d="M0 0 C3.96 0 7.92 0 12 0 C13.85537863 5.23134786 15.70668807 10.46411065 17.55419922 15.69824219 C18.18360842 17.47956445 18.8141385 19.26049107 19.44580078 21.04101562 C20.35221848 23.59662973 21.25462896 26.15362783 22.15625 28.7109375 C22.44060913 29.50994476 22.72496826 30.30895203 23.01794434 31.13217163 C25 36.77225659 25 36.77225659 25 39 C21.7 39 18.4 39 15 39 C14.01 35.37 13.02 31.74 12 28 C7.71 28 3.42 28 -1 28 C-1.309375 29.44375 -1.61875 30.8875 -1.9375 32.375 C-2.45483647 34.78923686 -2.89485234 36.78970467 -4 39 C-6.97 39 -9.94 39 -13 39 C-12.26170842 34.51287035 -10.80624392 30.33965965 -9.27734375 26.07421875 C-9.01240616 25.32662796 -8.74746857 24.57903717 -8.47450256 23.80879211 C-7.63203514 21.433877 -6.78484098 19.0606801 -5.9375 16.6875 C-5.36361894 15.07237693 -4.79004781 13.4571437 -4.21679688 11.84179688 C-2.81478382 7.89324655 -1.4085307 3.9462298 0 0 Z M5 10 C3.515 15.445 3.515 15.445 2 21 C4.64 21 7.28 21 10 21 C9.55123384 19.35153231 9.09069512 17.70626545 8.625 16.0625 C8.24214844 14.68771484 8.24214844 14.68771484 7.8515625 13.28515625 C7.23339896 10.83254913 7.23339896 10.83254913 5 10 Z " fill="#202B57" transform="translate(376,219)"/>
<path d="M0 0 C3.3 0 6.6 0 10 0 C12.64 4.62 15.28 9.24 18 14 C18.94875 12.4325 19.8975 10.865 20.875 9.25 C21.67550781 7.92742187 21.67550781 7.92742187 22.4921875 6.578125 C23.74672497 4.43306093 24.88867969 2.22264061 26 0 C29.3 0 32.6 0 36 0 C34.87802623 3.34576608 33.32480326 6.16346332 31.43359375 9.1171875 C25.00458445 19.24978404 21.21699169 26.81784747 22 39 C19.36 39 16.72 39 14 39 C14.11794922 37.75863281 14.11794922 37.75863281 14.23828125 36.4921875 C14.50413248 23.53543805 8.1429722 14.56467498 1.17749023 4.00854492 C0 2 0 2 0 0 Z " fill="#1F2B56" transform="translate(435,219)"/>
<path d="M0 0 C0.70125 -0.20625 1.4025 -0.4125 2.125 -0.625 C4 -1 4 -1 6.1015625 0.12109375 C8 2 8 2 8.390625 4.69921875 C8.32101562 6.17841797 8.32101562 6.17841797 8.25 7.6875 C8.21390625 8.68136719 8.1778125 9.67523438 8.140625 10.69921875 C8.07101562 11.83810547 8.07101562 11.83810547 8 13 C6.68 13 5.36 13 4 13 C3.67 9.7 3.34 6.4 3 3 C2.01 3.495 2.01 3.495 1 4 C0.53348793 6.12576782 0.53348793 6.12576782 0.375 8.5625 C0.30023438 9.38878906 0.22546875 10.21507812 0.1484375 11.06640625 C0.09945313 11.70449219 0.05046875 12.34257812 0 13 C-1.32 13 -2.64 13 -4 13 C-4.33 10.03 -4.66 7.06 -5 4 C-5.66 4 -6.32 4 -7 4 C-7.33 6.97 -7.66 9.94 -8 13 C-9.32 13 -10.64 13 -12 13 C-12 8.71 -12 4.42 -12 0 C-6.88588566 -0.85235239 -4.77563373 -0.830545 0 0 Z " fill="#060606" transform="translate(380,272)"/>
<path d="M0 0 C1.588125 -0.061875 3.17625 -0.12375 4.8125 -0.1875 C6.15248047 -0.23970703 6.15248047 -0.23970703 7.51953125 -0.29296875 C10 0 10 0 11.8046875 1.1328125 C13.52082725 3.81357983 13.36234012 5.90723708 13.3125 9.0625 C13.30863281 10.12597656 13.30476562 11.18945312 13.30078125 12.28515625 C13 15 13 15 11 17 C7.31975395 17.27629475 3.69505443 17.0859315 0 17 C0 11.39 0 5.78 0 0 Z M4 4 C4 4.99 4 5.98 4 7 C5.32 6.67 6.64 6.34 8 6 C8 5.34 8 4.68 8 4 C6.68 4 5.36 4 4 4 Z M4 10 C4 11.32 4 12.64 4 14 C5.65 13.67 7.3 13.34 9 13 C8.67 12.01 8.34 11.02 8 10 C6.68 10 5.36 10 4 10 Z " fill="#060606" transform="translate(203,268)"/>
<path d="M0 0 C0.66 0 1.32 0 2 0 C2.33 11.88 2.66 23.76 3 36 C24.45 36.33 45.9 36.66 68 37 C68 25.45 68 13.9 68 2 C68.33 2 68.66 2 69 2 C69 13.88 69 25.76 69 38 C45.9 38 22.8 38 -1 38 C-0.67 25.46 -0.34 12.92 0 0 Z " fill="#51B4DD" transform="translate(119,204)"/>
<path d="M0 0 C2.40346379 2.40346379 2.32083747 3.13900195 2.375 6.4375 C2.2797275 10.67032116 2.2797275 10.67032116 0.25 13.0625 C-2 14 -2 14 -6 14 C-6.33 15.32 -6.66 16.64 -7 18 C-8.65 18 -10.3 18 -12 18 C-12 12.06 -12 6.12 -12 0 C-3.75 -1.17857143 -3.75 -1.17857143 0 0 Z M-6 3 C-7.35618499 4.12534105 -7.35618499 4.12534105 -7.0625 7.0625 C-7.041875 8.031875 -7.02125 9.00125 -7 10 C-5.35 9.67 -3.7 9.34 -2 9 C-2 7.35 -2 5.7 -2 4 C-3.94603274 3.40929986 -3.94603274 3.40929986 -6 3 Z " fill="#050505" transform="translate(315,272)"/>
<path d="M0 0 C1.54586876 3.09173752 1.29359521 5.59429552 1 9 C-0.6875 11.4375 -0.6875 11.4375 -3 13 C-5.75 13.25 -5.75 13.25 -8 13 C-8.33 14.32 -8.66 15.64 -9 17 C-10.32 17 -11.64 17 -13 17 C-13 11.06 -13 5.12 -13 -1 C-4.8 -2.17142857 -4.8 -2.17142857 0 0 Z M-8 2 C-9.00217064 5.58327753 -9.00217064 5.58327753 -8 9 C-6.35 8.67 -4.7 8.34 -3 8 C-3.33 6.02 -3.66 4.04 -4 2 C-5.32 2 -6.64 2 -8 2 Z " fill="#060606" transform="translate(300,273)"/>
<path d="M0 0 C1.65 0 3.3 0 5 0 C6.00197706 2.64510016 7.00166921 5.29102402 8 7.9375 C8.28617187 8.69224609 8.57234375 9.44699219 8.8671875 10.22460938 C11 15.88671875 11 15.88671875 11 17 C9.35 17 7.7 17 6 17 C5.67 15.68 5.34 14.36 5 13 C3.35 13.33 1.7 13.66 0 14 C-0.33 14.99 -0.66 15.98 -1 17 C-2.65 17 -4.3 17 -6 17 C-4.33846988 11.14340094 -2.52958084 5.5409866 0 0 Z M2 5 C1.67 6.32 1.34 7.64 1 9 C1.66 9 2.32 9 3 9 C2.67 7.68 2.34 6.36 2 5 Z " fill="#040405" transform="translate(275,268)"/>
<path d="M0 0 C2.48038907 3.7205836 2.46337203 5.59796571 2 10 C0.4375 12.5 0.4375 12.5 -2 14 C-8.21428571 13.78571429 -8.21428571 13.78571429 -11 11 C-11.46376812 3.69565217 -11.46376812 3.69565217 -9 0 C-5.46474216 -1.17841928 -3.5797952 -0.91399027 0 0 Z M-6 3 C-6.33 3.66 -6.66 4.32 -7 5 C-5.68 5 -4.36 5 -3 5 C-3 4.34 -3 3.68 -3 3 C-3.99 3 -4.98 3 -6 3 Z M-7 8 C-6.67 8.66 -6.34 9.32 -6 10 C-4.68 9.67 -3.36 9.34 -2 9 C-2 8.67 -2 8.34 -2 8 C-3.65 8 -5.3 8 -7 8 Z " fill="#050506" transform="translate(401,272)"/>
<path d="M0 0 C1.32 0 2.64 0 4 0 C4.33 2.64 4.66 5.28 5 8 C5.66 7.01 6.32 6.02 7 5 C10.125 4.8125 10.125 4.8125 13 5 C11.68 6.65 10.36 8.3 9 10 C10.12451727 12.9719385 11.22293791 15.33440687 13 18 C10.125 18.1875 10.125 18.1875 7 18 C6.34 17.01 5.68 16.02 5 15 C4.67 15.99 4.34 16.98 4 18 C2.68 18 1.36 18 0 18 C0 12.06 0 6.12 0 0 Z " fill="#050506" transform="translate(250,267)"/>
<path d="M0 0 C1.9375 1.625 1.9375 1.625 3 4 C2.93439072 7.739729 2.76345433 10.0603639 0.375 13 C-3.07663304 14.45331917 -5.42809484 13.92604949 -9 13 C-11.45811625 9.31282562 -11.31118164 7.35654296 -11 3 C-7.89285592 -1.66071612 -5.11474757 -1.38524413 0 0 Z M-6 3 C-6.33 4.98 -6.66 6.96 -7 9 C-4.525 9.495 -4.525 9.495 -2 10 C-2 8.02 -2 6.04 -2 4 C-3.32 3.67 -4.64 3.34 -6 3 Z " fill="#050505" transform="translate(229,272)"/>
<path d="M0 0 C2.52185169 3.78277754 2.72956472 6.55796671 2 11 C0.4375 13.0625 0.4375 13.0625 -2 14 C-5.739729 13.93439072 -8.0603639 13.76345433 -11 11.375 C-12.48410166 7.85025855 -12.05654989 5.63189024 -11 2 C-7.36374171 -1.32457901 -4.62694146 -1.4394929 0 0 Z M-6 3 C-7.35618499 4.12534105 -7.35618499 4.12534105 -7.0625 7.0625 C-7.041875 8.031875 -7.02125 9.00125 -7 10 C-5.35 9.67 -3.7 9.34 -2 9 C-2 7.35 -2 5.7 -2 4 C-3.94603274 3.40929986 -3.94603274 3.40929986 -6 3 Z " fill="#040404" transform="translate(245,272)"/>
<path d="M0 0 C1.8125 1.125 1.8125 1.125 3 3 C3.38991688 7.36706908 3.46324069 9.30513897 1 13 C-2.47145233 13.83572001 -4.95649876 14.35698727 -8.375 13.1875 C-10 12 -10 12 -11 10 C-11.46117647 3.65882353 -11.46117647 3.65882353 -9.6875 1.125 C-6.22221537 -1.18518975 -3.86782336 -1.16034701 0 0 Z M-6 3 C-7.00217064 6.58327753 -7.00217064 6.58327753 -6 10 C-4.68 10 -3.36 10 -2 10 C-0.99782936 6.41672247 -0.99782936 6.41672247 -2 3 C-3.32 3 -4.64 3 -6 3 Z " fill="#050505" transform="translate(330,272)"/>
<path d="M0 0 C0 3.96 0 7.92 0 12 C-1.32 12 -2.64 12 -4 12 C-4 8.7 -4 5.4 -4 2 C-4.99 2.33 -5.98 2.66 -7 3 C-7.33 5.97 -7.66 8.94 -8 12 C-9.65 12 -11.3 12 -13 12 C-13 7.71 -13 3.42 -13 -1 C-7.96488101 -2.0070238 -4.76052962 -1.97387813 0 0 Z " fill="#050506" transform="translate(418,273)"/>
<path d="M0 0 C0 3.96 0 7.92 0 12 C-1.32 12 -2.64 12 -4 12 C-4 8.7 -4 5.4 -4 2 C-4.99 2.33 -5.98 2.66 -7 3 C-7.33 5.97 -7.66 8.94 -8 12 C-9.65 12 -11.3 12 -13 12 C-13 7.71 -13 3.42 -13 -1 C-7.96488101 -2.0070238 -4.76052962 -1.97387813 0 0 Z " fill="#060606" transform="translate(355,273)"/>
<path d="M0 0 C4.29 0 8.58 0 13 0 C13 12.87 13 25.74 13 39 C10.36 39 7.72 39 5 39 C5 33.06 5 27.12 5 21 C5.33 21 5.66 21 6 21 C6 26.61 6 32.22 6 38 C8.475 37.505 8.475 37.505 11 37 C11 25.45 11 13.9 11 2 C10.34 1.67 9.68 1.34 9 1 C8.67 1.99 8.34 2.98 8 4 C7.67 3.01 7.34 2.02 7 1 C3.74456771 1.34879632 2.98126893 2.02133261 0.75 4.5625 C0.1725 5.366875 -0.405 6.17125 -1 7 C-0.67 4.69 -0.34 2.38 0 0 Z " fill="#252C4F" transform="translate(235,219)"/>
<path d="M0 0 C1.32 0 2.64 0 4 0 C4 0.99 4 1.98 4 3 C4.99 3 5.98 3 7 3 C7 3.99 7 4.98 7 6 C6.01 6 5.02 6 4 6 C4 8.31 4 10.62 4 13 C4.99 13 5.98 13 7 13 C7 14.32 7 15.64 7 17 C4.69 16.67 2.38 16.34 0 16 C0 12.7 0 9.4 0 6 C-0.66 6 -1.32 6 -2 6 C-2 5.01 -2 4.02 -2 3 C-1.34 3 -0.68 3 0 3 C0 2.01 0 1.02 0 0 Z " fill="#070708" transform="translate(422,269)"/>
<path d="M0 0 C1.32 0 2.64 0 4 0 C4 0.99 4 1.98 4 3 C4.99 3 5.98 3 7 3 C7 3.99 7 4.98 7 6 C6.01 6 5.02 6 4 6 C4 8.31 4 10.62 4 13 C4.99 13.33 5.98 13.66 7 14 C6.67 14.99 6.34 15.98 6 17 C1.125 16.125 1.125 16.125 0 15 C-0.07179964 13.48071962 -0.08392007 11.95832518 -0.0625 10.4375 C-0.05347656 9.61121094 -0.04445313 8.78492188 -0.03515625 7.93359375 C-0.02355469 7.29550781 -0.01195312 6.65742188 0 6 C-0.66 6 -1.32 6 -2 6 C-2 5.01 -2 4.02 -2 3 C-1.34 3 -0.68 3 0 3 C0 2.01 0 1.02 0 0 Z " fill="#080808" transform="translate(359,269)"/>
<path d="M0 0 C4.62 0 9.24 0 14 0 C13.67 0.99 13.34 1.98 13 3 C9.7 2.67 6.4 2.34 3 2 C3 4.97 3 7.94 3 11 C6.3 11 9.6 11 13 11 C13.33 11.99 13.66 12.98 14 14 C9.38 14 4.76 14 0 14 C0 9.38 0 4.76 0 0 Z " fill="#4AA6D4" transform="translate(133,269)"/>
<path d="M0 0 C4.45165631 1.39909198 6.96606091 3.47407079 10 7 C12.6884713 12.52682254 12.66901035 17.97112768 12 24 C10.947903 26.9961893 9.67676301 29.27526011 8 32 C7.67 31.34 7.34 30.68 7 30 C7.474375 28.824375 7.94875 27.64875 8.4375 26.4375 C10.19757591 21.96397373 10.89366413 17.76934435 10 13 C8.14579161 10.55901182 8.14579161 10.55901182 6 9 C6 8.34 6 7.68 6 7 C4.35 6.67 2.7 6.34 1 6 C1.33 4.68 1.66 3.36 2 2 C1.34 2 0.68 2 0 2 C0 1.34 0 0.68 0 0 Z " fill="#242D50" transform="translate(314,220)"/>
<path d="M0 0 C0.33 0 0.66 0 1 0 C1 4.62 1 9.24 1 14 C-3.62 14 -8.24 14 -13 14 C-12.67 13.34 -12.34 12.68 -12 12 C-8.37 12 -4.74 12 -1 12 C-1.33 8.7 -1.66 5.4 -2 2 C-5.63 2 -9.26 2 -13 2 C-13 1.67 -13 1.34 -13 1 C-11.71802734 1.01740234 -11.71802734 1.01740234 -10.41015625 1.03515625 C-8.75306641 1.04869141 -8.75306641 1.04869141 -7.0625 1.0625 C-5.40927734 1.07990234 -5.40927734 1.07990234 -3.72265625 1.09765625 C-1.08552366 1.31262571 -1.08552366 1.31262571 0 0 Z " fill="#44A5D1" transform="translate(173,269)"/>
<path d="M0 0 C1.32 0 2.64 0 4 0 C4 4.29 4 8.58 4 13 C2.68 13 1.36 13 0 13 C0 8.71 0 4.42 0 0 Z " fill="#080808" transform="translate(335,272)"/>
<path d="M0 0 C1.65 0 3.3 0 5 0 C5.04254356 1.99954746 5.04080783 4.00041636 5 6 C4 7 4 7 1.05859375 7.09765625 C-0.73384766 7.08025391 -0.73384766 7.08025391 -2.5625 7.0625 C-4.35880859 7.04896484 -4.35880859 7.04896484 -6.19140625 7.03515625 C-7.11824219 7.02355469 -8.04507812 7.01195312 -9 7 C-9 6.67 -9 6.34 -9 6 C-5.37 6 -1.74 6 2 6 C1.34 4.02 0.68 2.04 0 0 Z " fill="#19224A" transform="translate(280,219)"/>
<path d="M0 0 C3.34373475 0.55728913 6.03312999 1.35173889 9 3 C9 3.66 9 4.32 9 5 C7.02 5.33 5.04 5.66 3 6 C0 1.125 0 1.125 0 0 Z " fill="#46B6E5" transform="translate(163,176)"/>
<path d="M0 0 C0.309375 0.639375 0.61875 1.27875 0.9375 1.9375 C1.8345163 3.93610821 1.8345163 3.93610821 3 5 C3.04063832 6.66617115 3.042721 8.33388095 3 10 C3.66 10 4.32 10 5 10 C4.67 11.32 4.34 12.64 4 14 C3.13116294 12.42466914 2.28040932 10.83935491 1.4375 9.25 C0.96183594 8.36828125 0.48617187 7.4865625 -0.00390625 6.578125 C-1.07998186 3.79298812 -1.06528748 2.73019786 0 0 Z " fill="#50B4DF" transform="translate(54,283)"/>
<path d="M0 0 C0.99 0.33 1.98 0.66 3 1 C3 1.66 3 2.32 3 3 C3.66 3 4.32 3 5 3 C7.125 7.625 7.125 7.625 6 11 C4.02 7.37 2.04 3.74 0 0 Z " fill="#20294A" transform="translate(435,220)"/>
<path d="M0 0 C1.32 0 2.64 0 4 0 C4 1.32 4 2.64 4 4 C3.34 4 2.68 4 2 4 C1.67 4.66 1.34 5.32 1 6 C0.01 4.68 -0.98 3.36 -2 2 C-1.34 2 -0.68 2 0 2 C0 1.34 0 0.68 0 0 Z " fill="#171F5A" transform="translate(357,219)"/>
<path d="M0 0 C0.99 0.33 1.98 0.66 3 1 C2.01 1.33 1.02 1.66 0 2 C0.33 2.99 0.66 3.98 1 5 C-1.97 4.505 -1.97 4.505 -5 4 C-3.36587557 2.29159719 -2.13093906 1.06546953 0 0 Z " fill="#45B8DC" transform="translate(139,177)"/>
<path d="M0 0 C2.97 0 5.94 0 9 0 C8.67 0.66 8.34 1.32 8 2 C6.02 2 4.04 2 2 2 C1.67 2.99 1.34 3.98 1 5 C0.67 3.35 0.34 1.7 0 0 Z " fill="#2B3056" transform="translate(402,246)"/>
<path d="M0 0 C1 2 1 2 0.375 4.0625 C-1 6 -1 6 -3.625 6.75 C-4.800625 6.87375 -4.800625 6.87375 -6 7 C-4.02 4.69 -2.04 2.38 0 0 Z " fill="#54B5D4" transform="translate(132,181)"/>
<path d="M0 0 C0.99 0 1.98 0 3 0 C3 1.32 3 2.64 3 4 C1.68 4 0.36 4 -1 4 C-0.67 2.68 -0.34 1.36 0 0 Z " fill="#0E0C11" transform="translate(336,267)"/>
</svg>
